<?xml version="1.0" standalone="no"?>
<!DOCTYPE svg PUBLIC "-//W3C//DTD SVG 20010904//EN"
 "http://www.w3.org/TR/2001/REC-SVG-20010904/DTD/svg10.dtd">
<svg version="1.0" xmlns="http://www.w3.org/2000/svg"
 width="700.000000pt" height="700.000000pt" viewBox="0 0 700.000000 700.000000"
 preserveAspectRatio="xMidYMid meet">
<metadata>
Created by potrace 1.11, written by Peter Selinger 2001-2013
</metadata>
<g transform="translate(0.000000,700.000000) scale(0.100000,-0.100000)"
fill="#000000" stroke="none">
<path d="M3406 5152 c-89 -47 -129 -76 -119 -85 3 -3 -3 -3 -14 -1 -21 6 -93
-22 -93 -36 0 -6 -6 -10 -12 -10 -7 0 -80 -34 -163 -76 -82 -42 -176 -89 -207
-105 -31 -16 -62 -29 -68 -29 -6 0 -8 -4 -5 -10 3 -5 0 -10 -8 -10 -8 0 -72
-29 -142 -65 -70 -36 -133 -65 -141 -65 -8 0 -14 -4 -14 -8 0 -4 -46 -30 -102
-57 -57 -28 -105 -52 -108 -55 -5 -5 -61 -33 -70 -35 -3 0 -16 -8 -30 -17 -14
-9 -45 -24 -70 -34 -25 -10 -47 -21 -50 -25 -3 -3 -67 -37 -143 -75 -76 -38
-168 -84 -205 -102 -37 -19 -70 -39 -74 -45 -4 -7 -8 -9 -8 -5 0 4 -30 -9 -67
-27 -38 -19 -73 -35 -80 -35 -6 0 -13 -3 -15 -8 -3 -6 -89 -53 -224 -120 -26
-13 -53 -29 -61 -37 -8 -8 -23 -15 -34 -15 -24 0 -25 -19 -2 -26 10 -4 34 -13
53 -22 19 -9 42 -16 50 -17 8 -1 76 -19 150 -40 74 -21 160 -44 190 -51 30 -7
80 -20 110 -29 78 -23 311 -85 320 -85 3 0 5 17 6 38 0 20 7 51 14 69 8 18 12
34 9 37 -2 3 -42 14 -89 25 -47 12 -112 30 -145 40 -33 11 -91 27 -130 36 -38
10 -74 18 -80 20 -5 1 -25 6 -43 10 -45 10 -47 20 -9 36 17 7 34 15 37 18 6 7
146 76 195 97 19 8 35 19 35 24 0 6 6 10 14 10 14 0 183 83 203 100 7 5 16 10
20 10 11 0 63 112 63 134 0 10 9 20 20 23 11 3 20 8 20 12 0 11 37 29 74 36
51 10 46 -8 -11 -38 -57 -29 -92 -79 -71 -100 11 -12 31 -6 123 39 61 29 115
57 120 61 10 8 72 40 813 413 202 102 370 189 373 193 3 4 12 1 19 -8 7 -8 18
-15 25 -15 10 0 238 -113 318 -157 12 -7 42 -22 67 -33 25 -12 70 -34 100 -50
30 -17 60 -30 67 -30 7 0 13 -4 13 -8 0 -5 30 -22 68 -37 37 -16 74 -33 82
-40 8 -6 80 -44 160 -83 80 -39 156 -78 170 -86 35 -21 91 -46 102 -46 5 0 19
-9 30 -20 12 -11 36 -24 52 -29 17 -5 74 -32 126 -60 52 -28 115 -60 140 -71
25 -11 68 -32 95 -46 28 -15 131 -67 230 -117 118 -60 173 -93 160 -95 -11 -2
-33 -10 -50 -18 -16 -7 -76 -25 -133 -39 -57 -14 -111 -30 -120 -35 -9 -5 -75
-23 -147 -41 -71 -17 -134 -36 -139 -40 -6 -5 -18 -9 -27 -9 -18 0 -83 -18
-188 -51 -35 -11 -64 -19 -65 -17 -1 2 -11 31 -21 66 -10 34 -22 62 -26 62 -4
0 -36 19 -71 43 -90 59 -107 69 -119 62 -5 -4 -9 -3 -8 2 3 20 -2 25 -16 13
-13 -11 -15 -10 -10 1 5 15 -89 65 -186 98 -31 10 -64 23 -75 29 -21 11 -167
54 -199 58 -11 1 -40 8 -65 14 -25 7 -115 19 -201 28 -141 14 -171 14 -315 0
-163 -16 -422 -70 -472 -98 -28 -16 -144 -60 -158 -60 -7 0 -14 -4 -16 -8 -1
-4 -34 -23 -72 -41 -39 -19 -76 -40 -84 -47 -7 -8 -18 -14 -23 -14 -18 0 -89
-52 -83 -61 3 -5 2 -9 -3 -8 -21 4 -33 -2 -33 -16 0 -8 -3 -14 -7 -14 -35 6
-42 -3 -48 -56 -4 -30 -11 -57 -15 -60 -4 -3 -34 3 -66 14 -33 10 -74 21 -93
24 -29 6 -32 5 -26 -11 3 -9 13 -47 22 -84 12 -54 19 -68 33 -68 11 0 22 -5
26 -11 3 -6 19 -9 35 -7 15 3 26 1 24 -3 -3 -4 5 -9 16 -12 16 -4 20 -10 14
-24 -8 -19 -15 -516 -7 -545 3 -13 9 -15 21 -9 40 21 296 61 521 82 145 13
369 -1 590 -38 69 -12 112 -9 285 16 195 29 382 31 580 7 142 -17 327 -52 355
-66 11 -6 16 -3 17 8 1 9 3 26 6 37 2 11 0 26 -6 33 -7 9 -6 11 4 7 10 -4 15
6 18 37 8 75 6 351 -2 409 -8 63 -5 66 83 89 77 19 380 105 515 146 28 9 61
18 75 21 14 2 59 15 100 28 41 12 102 30 135 40 127 35 195 58 191 64 -2 3 17
7 42 8 26 1 48 7 50 12 2 5 10 7 19 4 11 -4 14 0 11 18 -1 13 -7 23 -13 22 -5
-1 -18 6 -27 14 -10 9 -18 12 -18 7 0 -5 -4 -4 -8 1 -4 6 -34 23 -67 39 -33
16 -76 38 -95 48 -19 10 -174 89 -345 174 -170 86 -321 162 -335 170 -31 17
-107 55 -180 88 -30 14 -62 30 -70 35 -8 6 -85 45 -170 89 -85 43 -164 83
-175 90 -11 6 -83 42 -160 79 -77 37 -142 70 -145 73 -3 3 -24 14 -47 24 -24
11 -43 23 -43 28 0 4 -6 8 -13 8 -7 0 -32 9 -55 20 -22 11 -46 20 -52 20 -5 0
-10 5 -10 10 0 6 -9 10 -19 10 -11 0 -21 3 -23 8 -3 7 -230 122 -242 122 -4 0
-24 11 -44 25 -20 14 -46 25 -57 24 -11 -1 -60 -22 -109 -47z m339 -1082 c79
-13 236 -48 285 -64 115 -37 346 -146 408 -192 17 -14 32 -22 32 -18 0 4 9 -3
19 -15 11 -13 25 -46 30 -74 6 -29 18 -88 26 -132 9 -44 19 -149 22 -234 l6
-154 -34 7 c-19 4 -101 16 -184 26 -205 27 -427 26 -637 -2 -90 -12 -174 -21
-188 -21 -29 0 -285 31 -315 38 -12 2 -104 5 -205 5 -167 1 -403 -20 -525 -45
l-30 -7 7 159 c7 169 25 374 37 405 4 10 31 34 61 53 57 35 291 155 304 155 4
0 26 9 49 19 44 20 254 74 347 90 70 11 419 12 485 1z"/>
<path d="M5637 83 c-13 -13 -7 -33 11 -34 14 0 14 -2 -3 -9 -19 -7 -19 -8 -2
-15 11 -5 23 -3 30 4 9 10 8 16 -7 27 -18 13 -18 14 -2 14 9 0 14 5 11 10 -7
11 -28 13 -38 3z"/>
<path d="M5795 78 c-2 -7 -6 -22 -8 -33 -4 -18 -5 -18 -6 3 -1 13 -7 22 -17
22 -8 0 -13 -4 -9 -9 3 -5 1 -12 -5 -16 -21 -13 -9 -25 25 -25 33 0 35 2 35
35 0 35 -7 46 -15 23z"/>
<path d="M5910 75 c-8 -9 -8 -15 -2 -15 6 0 13 -10 15 -22 3 -14 5 -9 6 15 1
41 -1 44 -19 22z"/>
<path d="M5987 84 c-10 -10 -9 -26 1 -20 4 2 9 -5 9 -17 2 -17 0 -19 -7 -7 -8
13 -10 12 -10 -3 0 -12 6 -17 18 -15 11 2 17 13 17 32 0 29 -14 43 -28 30z"/>
<path d="M6065 70 c-3 -5 -2 -10 4 -10 5 0 12 -10 14 -22 3 -17 5 -14 6 10 1
31 -11 43 -24 22z"/>
<path d="M926 63 c6 -4 14 -15 17 -23 5 -11 6 -9 4 4 -1 11 -9 21 -17 23 -10
3 -11 2 -4 -4z"/>
<path d="M1106 62 c-3 -5 1 -9 9 -9 8 0 12 4 9 9 -3 4 -7 8 -9 8 -2 0 -6 -4
-9 -8z"/>
<path d="M2052 50 c0 -14 2 -19 5 -12 2 6 2 18 0 25 -3 6 -5 1 -5 -13z"/>
<path d="M2440 51 c-12 -24 -13 -34 -1 -27 9 6 22 46 15 46 -2 0 -8 -9 -14
-19z"/>
<path d="M4917 57 c-3 -8 -1 -20 4 -28 6 -10 9 -7 9 14 0 29 -5 35 -13 14z"/>
<path d="M5693 54 c-9 -23 14 -42 30 -25 10 11 10 13 0 7 -8 -5 -13 -1 -13 9
0 9 5 13 10 10 6 -3 10 -1 10 4 0 17 -30 13 -37 -5z"/>
<path d="M5820 50 c0 -11 7 -23 15 -27 19 -7 22 -4 27 22 2 14 -3 21 -19 23
-18 3 -23 -2 -23 -18z"/>
<path d="M3441 44 c0 -11 3 -14 6 -6 3 7 2 16 -1 19 -3 4 -6 -2 -5 -13z"/>
<path d="M3461 44 c0 -11 3 -14 6 -6 3 7 2 16 -1 19 -3 4 -6 -2 -5 -13z"/>
<path d="M4610 50 c-9 -6 -10 -10 -3 -10 6 0 15 5 18 10 8 12 4 12 -15 0z"/>
<path d="M4761 44 c0 -11 3 -14 6 -6 3 7 2 16 -1 19 -3 4 -6 -2 -5 -13z"/>
<path d="M2412 30 c0 -14 2 -19 5 -12 2 6 2 18 0 25 -3 6 -5 1 -5 -13z"/>
<path d="M2551 34 c0 -11 3 -14 6 -6 3 7 2 16 -1 19 -3 4 -6 -2 -5 -13z"/>
<path d="M2611 28 c1 -18 2 -19 6 -5 2 9 9 14 15 11 7 -4 8 -2 4 4 -12 20 -26
13 -25 -10z"/>
<path d="M3000 41 c0 -6 4 -13 10 -16 6 -3 7 1 4 9 -7 18 -14 21 -14 7z"/>
<path d="M3340 46 c0 -2 9 -6 20 -9 11 -3 18 -1 14 4 -5 9 -34 13 -34 5z"/>
<path d="M3481 34 c0 -11 3 -14 6 -6 3 7 2 16 -1 19 -3 4 -6 -2 -5 -13z"/>
<path d="M3500 40 c0 -5 5 -10 11 -10 5 0 7 5 4 10 -3 6 -8 10 -11 10 -2 0 -4
-4 -4 -10z"/>
<path d="M2128 33 c7 -3 16 -2 19 1 4 3 -2 6 -13 5 -11 0 -14 -3 -6 -6z"/>
<path d="M2385 30 c3 -5 8 -10 11 -10 2 0 4 5 4 10 0 6 -5 10 -11 10 -5 0 -7
-4 -4 -10z"/>
<path d="M2693 25 c0 -8 4 -12 9 -9 5 3 6 10 3 15 -9 13 -12 11 -12 -6z"/>
<path d="M3120 30 c0 -5 7 -7 15 -4 8 4 15 8 15 10 0 2 -7 4 -15 4 -8 0 -15
-4 -15 -10z"/>
<path d="M3280 32 c0 -6 -8 -9 -17 -6 -15 5 -16 4 -3 -5 16 -11 40 3 27 16 -4
3 -7 1 -7 -5z"/>
<path d="M4380 30 c0 -5 7 -7 15 -4 8 4 15 8 15 10 0 2 -7 4 -15 4 -8 0 -15
-4 -15 -10z"/>
<path d="M6035 30 c-3 -5 -1 -10 4 -10 6 0 11 5 11 10 0 6 -2 10 -4 10 -3 0
-8 -4 -11 -10z"/>
<path d="M2846 18 c3 -5 10 -6 15 -3 13 9 11 12 -6 12 -8 0 -12 -4 -9 -9z"/>
</g>
</svg>
